# xmcd
#
# Track frame offsets: 
#        150
#        14857
#        40777
#        60650
#        79147
#        99200
#        115043
#        134076
#        152766
#        165959
#        184816
#        200047
#        219094
#        229515
#        245938
#        256952
#        272031
#        285492
#        301721
#        320982
#        344477
#
# Disc length: 4786 seconds
#
# Revision: 1
# Processed by: cddbd v1.5.1PL0 Copyright (c) Steve Scherf et al.
# Submitted via: ExactAudioCopy v0.95a5
#
DISCID=2f12b015
DTITLE=Michelle Shocked - Short Sharp Shocked 2003 Disk Two
DYEAR=2003
DGENRE=
TTITLE0=When I Grow Up (demo)
TTITLE1=Memories of East Texas (live)
TTITLE2=Yamboree Queen
TTITLE3=Strawberry Jam
TTITLE4=Graffiti Limbo (demo)
TTITLE5=If Love Was a Train (alternate)
TTITLE6=Anchorage (radio)
TTITLE7=L&N Don't Stop Here Anymore (alternate)
TTITLE8=VFD (live)
TTITLE9=Black Widow (alternate)
TTITLE10=Leavin' Louisiana in the Broad Daylight
TTITLE11=Disoriented
TTITLE12=Lovely Rita
TTITLE13=Ballad of Penny Evans
TTITLE14=Remodeling the Pentagon
TTITLE15=Fred's Winter Song
TTITLE16=Prince of Darkness (with The Mekons)
TTITLE17=One Piece at a Time
TTITLE18=5 AM in Amsterdam
TTITLE19=Campus Crusade
TTITLE20=Goodnight Irene
EXTD=
EXTT0=
EXTT1=
EXTT2=
EXTT3=
EXTT4=
EXTT5=
EXTT6=
EXTT7=
EXTT8=
EXTT9=
EXTT10=
EXTT11=
EXTT12=
EXTT13=
EXTT14=
EXTT15=
EXTT16=
EXTT17=
EXTT18=
EXTT19=
EXTT20=
PLAYORDER=
